<?xml version="1.0" encoding="UTF-8" standalone="no"?>
<!-- Created with Inkscape (http://www.inkscape.org/) -->

<svg
   xmlns:dc="http://purl.org/dc/elements/1.1/"
   xmlns:cc="http://creativecommons.org/ns#"
   xmlns:rdf="http://www.w3.org/1999/02/22-rdf-syntax-ns#"
   xmlns:svg="http://www.w3.org/2000/svg"
   xmlns="http://www.w3.org/2000/svg"
   xmlns:sodipodi="http://sodipodi.sourceforge.net/DTD/sodipodi-0.dtd"
   xmlns:inkscape="http://www.inkscape.org/namespaces/inkscape"
   id="svg4141"
   version="1.1"
   inkscape:version="0.91 r13725"
   width="27.5"
   height="27.5"
   xml:space="preserve"
   sodipodi:docname="Icon.svg"><metadata
     id="metadata4147"><rdf:RDF><cc:Work
         rdf:about=""><dc:format>image/svg+xml</dc:format><dc:type
           rdf:resource="http://purl.org/dc/dcmitype/StillImage" /><dc:title /></cc:Work></rdf:RDF></metadata><defs
     id="defs4145"><clipPath
       clipPathUnits="userSpaceOnUse"
       id="clipPath4155"><path
         d="M 0,22 22,22 22,0 0,0 0,22 z"
         id="path4157" /></clipPath></defs><sodipodi:namedview
     pagecolor="#ffffff"
     bordercolor="#666666"
     borderopacity="1"
     objecttolerance="10"
     gridtolerance="10"
     guidetolerance="10"
     inkscape:pageopacity="0"
     inkscape:pageshadow="2"
     inkscape:window-width="1487"
     inkscape:window-height="1146"
     id="namedview4143"
     showgrid="true"
     inkscape:zoom="11.997371"
     inkscape:cx="-6.3321159"
     inkscape:cy="8.2439938"
     inkscape:window-x="0"
     inkscape:window-y="22"
     inkscape:window-maximized="0"
     inkscape:current-layer="g4153"><inkscape:grid
       type="xygrid"
       id="grid4151" /></sodipodi:namedview><g
     id="g4149"
     inkscape:groupmode="layer"
     inkscape:label="dizmoIcon-about-dark"
     transform="matrix(1.25,0,0,-1.25,0,27.5)"><g
       id="g4151"><g
         id="g4153"
         clip-path="url(#clipPath4155)"><g
           id="g4183"
           transform="translate(3.5762,0.9985)" /><path
           id="rect3348"
           transform="scale(1,-1)"
           style="opacity:1;fill:#424142;fill-opacity:1;stroke:none;stroke-width:5;stroke-linecap:round;stroke-linejoin:round;stroke-miterlimit:4;stroke-dasharray:none;stroke-dashoffset:0;stroke-opacity:1"
           d="m 10.4,-5.5999999 1.6,0 0,3.2 -1.6,0 z m 1.6,0 5.6,0 0,1.6 -5.6,0 z m 5.6,-3.2000003 1.6,0 L 19.2,-4 17.6,-4 Z M 16,-10.4 l 3.2,0 0,1.6000004 -3.2,0 z m 0,-5.6 1.6,0 0,5.6 -1.6,0 z m -3.2,0 3.2,0 0,1.6 -3.2,0 z M 6.4000001,-8 8,-8 l 0,1.6 -1.5999999,0 z M 11.2,-16 l 1.6,0 0,3.2 -1.6,0 z m -1.5999996,3.2 3.1999996,0 0,1.6 -3.1999996,0 z M 3.5762,-0.9985 l 14.848,0 c 0.011,-0.001 0.023,-0.003 0.035,-0.003 0.764,-0.054 2.542,-0.418 2.542,-2.652 l 0,-14.692 c 0,-2.234 -1.778,-2.598 -2.542,-2.652 -0.014,-0.001 -0.028,-0.002 -0.042,-0.004 l -14.835,0 c -0.013,0.002 -0.027,0.003 -0.041,0.004 -0.765,0.054 -2.543,0.418 -2.543,2.652 l 0,14.692 c 0,2.234 1.778,2.598 2.543,2.652 0.012,0 0.023,0.002 0.035,0.003 m 14.917,0.997 -14.987,0 c -0.037,0 -0.073,-0.004 -0.108,-0.012 -1.656,-0.14 -3.397,-1.166 -3.397,-3.64 l 0,-14.692 c 0,-2.472 1.738,-3.498 3.392,-3.64 0.037,-0.009 0.075,-0.013 0.113,-0.013 l 14.987,0 c 0.04,0 0.079,0.005 0.115,0.013 1.655,0.143 3.39,1.17 3.39,3.64 l 0,14.692 c 0,2.475 -1.742,3.5 -3.398,3.64 -0.034,0.008 -0.07,0.012 -0.107,0.012" /></g></g></g></svg>